<?xml version="1.0" encoding="UTF-8" standalone="no"?>
<!-- Generator: Adobe Illustrator 16.0.0, SVG Export Plug-In . SVG Version: 6.00 Build 0)  -->

<svg
   version="1.1"
   id="Layer_1"
   x="0px"
   y="0px"
   width="115"
   height="115"
   viewBox="0 0 115 115"
   enable-background="new 0 0 115 37.971"
   xml:space="preserve"
   sodipodi:docname="uqam-logo-1.svg"
   inkscape:version="1.1 (c68e22c387, 2021-05-23)"
   xmlns:inkscape="http://www.inkscape.org/namespaces/inkscape"
   xmlns:sodipodi="http://sodipodi.sourceforge.net/DTD/sodipodi-0.dtd"
   xmlns="http://www.w3.org/2000/svg"
   xmlns:svg="http://www.w3.org/2000/svg"><defs
   id="defs16" /><sodipodi:namedview
   id="namedview14"
   pagecolor="#ffffff"
   bordercolor="#666666"
   borderopacity="1.0"
   inkscape:pageshadow="2"
   inkscape:pageopacity="0.0"
   inkscape:pagecheckerboard="0"
   showgrid="false"
   height="115px"
   inkscape:zoom="9.4521739"
   inkscape:cx="57.5"
   inkscape:cy="61.308648"
   inkscape:window-width="3378"
   inkscape:window-height="1417"
   inkscape:window-x="-8"
   inkscape:window-y="-8"
   inkscape:window-maximized="1"
   inkscape:current-layer="Layer_1" />
<g
   id="logo_UQAM"
   transform="translate(0,38.5145)">
	<path
   fill="#ffffff"
   d="m 59.769,37.007 c -2.331,0.262 -4.105,0.498 -6.536,0.964 C 51.353,37.353 44.264,34.388 40.337,33.157 30,33.063 26.769,25.887 26.779,19.948 26.791,13.126 31.343,6.382 41.025,6.389 c 10.171,0.008 14.391,6.767 14.362,13.528 -0.026,6.019 -4.502,11.487 -9.542,12.472 0.539,0.096 0.441,-0.047 1.69,0.355 0.808,0.26 10.455,3.371 12.232,3.953 v 0.31 z M 41.045,8.706 c -5.977,-0.03 -8.189,5.605 -8.218,11.216 -0.029,5.982 3.073,10.706 8.139,10.738 5.188,0.033 8.143,-4.709 8.342,-10.75 C 49.493,14.242 47.09,8.735 41.045,8.706 Z"
   id="path2" />
	<path
   fill="#ffffff"
   d="M 63.491,24.967 60.578,32.55 H 56.257 C 57.538,29.403 67.066,8.055 67.533,6.89 h 2.956 c 0.815,1.515 10.491,23.386 11.54,25.66 h -6.042 l -3.059,-7.583 z m 8.334,-2.773 -3.717,-9.229 -3.531,9.229 z"
   id="path4" />
	<path
   fill="#ffffff"
   d="M 99.632,24.188 91.317,6.89 h -3.5 l -3.505,25.66 h 4.244 l 1.516,-16.894 c 0.641,0.933 7.657,16.113 8.007,16.929 h 1.686 l 7.697,-16.929 1.459,16.894 H 115 L 111.706,6.89 h -3.728 z"
   id="path6" />
	<path
   fill="#ffffff"
   d="m 18.317,6.89 c 0,3.205 0,13.029 0,14.428 0,3.698 -0.808,8.653 -6.326,8.66 -3.515,0.004 -6.22,-1.918 -6.226,-6.637 -0.002,-1.282 0,-15.927 0,-16.451 H 0.003 c 0,2.564 -0.007,14.008 0,16.34 0.022,6.631 5.131,9.724 11.288,9.772 8.003,0.063 11.565,-4.575 11.58,-10.037 0.01,-3.788 0,-16.075 0,-16.075 z"
   id="path8" />
	<path
   fill="#ffffff"
   d="M 56.604,0.962 C 58.904,0.661 61.241,0.253 62.796,0 64.239,0.48 73.129,3.873 74.878,4.397 V 4.646 C 73.48,4.878 72.261,5.152 70.474,5.678 69.12,5.241 57.785,1.558 56.604,1.208 Z"
   id="path10" />
</g>
</svg>
